<svg xmlns="http://www.w3.org/2000/svg" width="399" height="399" viewBox="0 0 399 399">
<g>
<path d="M 122.35 266.99 C96.55,261.41 75.64,250.33 61.51,234.77 C31.75,201.99 30.54,150.71 58.64,113.36 C71.73,95.96 88.62,84.33 108.91,78.75 C115.77,76.86 119.87,76.62 151.71,76.24 L 186.92 75.83 L 189.46 78.37 C191.48,80.39 192.00,81.90 192.00,85.73 C192.00,88.48 191.33,91.51 190.44,92.78 C188.89,94.99 188.78,95.00 158.07,95.00 C128.59,95.00 126.84,95.11 117.51,97.47 C93.74,103.50 74.62,117.95 64.88,137.24 C52.19,162.37 56.89,198.09 75.86,220.67 C89.84,237.31 107.24,246.40 127.61,247.70 C146.61,248.91 147.65,248.00 164.20,215.80 C171.07,202.43 189.25,167.01 204.60,137.09 C219.94,107.16 233.87,81.20 235.55,79.40 C238.92,75.80 242.66,74.45 246.55,75.42 C252.51,76.92 255.52,81.71 274.56,120.00 C284.82,140.62 293.64,158.02 294.16,158.66 C294.66,159.28 298.70,158.69 305.21,157.13 C300.75,158.33 297.47,159.18 296.38,159.39 C291.41,160.34 272.59,165.28 270.50,166.18 C270.32,166.26 270.10,166.34 269.86,166.43 C270.89,165.89 270.89,165.23 270.45,163.85 C270.11,162.76 264.25,150.46 257.44,136.51 C244.38,109.77 242.81,107.66 238.99,111.65 C236.98,113.74 205.00,175.69 205.00,177.48 C205.00,177.91 206.46,177.99 209.25,177.75 C208.22,177.88 207.30,177.99 206.50,178.08 C200.45,178.72 195.06,179.65 194.53,180.15 C193.65,180.95 197.34,189.62 199.16,191.00 C199.52,191.28 203.46,198.21 207.92,206.42 C211.00,212.08 213.92,217.30 215.62,220.23 C213.88,217.57 211.32,212.85 206.97,204.75 C202.91,197.19 199.12,191.00 198.54,191.01 C197.97,191.01 190.17,205.61 181.22,223.46 C172.27,241.31 163.80,257.27 162.41,258.93 C161.02,260.58 156.95,263.38 153.37,265.14 C144.93,269.29 135.56,269.85 122.35,266.99 ZM 283.79 196.06 C283.89,196.03 283.98,196.01 284.07,195.98 C286.31,195.38 291.45,193.38 295.50,191.53 C299.54,189.69 303.86,187.86 305.10,187.47 C306.33,187.08 307.83,186.34 308.42,185.84 C308.85,185.48 314.03,182.87 321.16,179.41 C313.49,183.22 308.04,186.25 308.03,186.79 C308.01,187.51 316.57,205.49 327.03,226.75 C337.50,248.02 345.93,266.11 345.77,266.96 C344.91,271.49 325.59,271.29 321.50,266.71 C320.40,265.48 312.11,249.06 303.07,230.23 C290.81,204.70 286.20,196.00 284.90,196.00 C284.51,196.00 284.14,196.02 283.79,196.06 ZM 177.20 326.80 C176.34,325.94 176.00,319.64 176.00,304.80 L 176.00 284.00 L 186.75 284.01 C192.66,284.01 199.17,284.48 201.22,285.04 C209.63,287.38 215.29,295.54 215.40,305.50 C215.53,316.95 209.14,324.89 198.08,326.98 C190.69,328.39 178.68,328.28 177.20,326.80 ZM 281.63 327.21 C281.37,326.78 284.95,317.89 289.61,307.46 C294.26,297.03 298.49,287.49 299.01,286.25 C299.80,284.38 300.73,284.00 304.53,284.00 C308.87,284.00 309.18,284.19 310.66,287.75 C311.52,289.81 314.02,295.33 316.20,300.00 C329.25,327.87 329.42,328.53 323.43,327.83 C321.32,327.58 320.11,326.51 318.55,323.50 L 316.48 319.50 L 292.50 319.50 L 290.80 322.91 C289.86,324.79 288.51,326.69 287.80,327.15 C286.14,328.20 282.27,328.24 281.63,327.21 ZM 110.25 327.36 C109.31,326.96 109.00,321.60 109.00,305.42 L 109.00 284.00 L 111.99 284.00 C114.63,284.00 116.20,285.52 125.16,296.75 C130.75,303.76 135.80,309.50 136.36,309.50 C137.46,309.50 137.50,309.04 137.81,293.75 L 138.00 284.00 L 145.04 284.00 L 144.77 305.75 C144.51,326.81 144.44,327.49 142.50,327.33 C141.40,327.24 139.15,325.47 137.50,323.40 C123.55,305.89 118.27,299.59 117.25,299.25 C116.37,298.96 115.98,302.65 115.78,313.18 C115.52,326.67 115.38,327.51 113.50,327.69 C112.40,327.79 110.94,327.64 110.25,327.36 ZM 202.39 317.91 C207.84,313.62 209.56,305.66 206.56,298.49 C204.35,293.19 199.88,291.01 191.25,291.00 L 184.00 291.00 L 184.00 320.00 L 191.87 320.00 C198.33,320.00 200.20,319.63 202.39,317.91 ZM 245.71 327.38 C245.32,326.99 245.00,317.12 245.00,305.45 L 245.00 284.23 L 247.69 283.72 C249.27,283.42 250.39,283.18 251.17,283.59 C253.06,284.59 252.97,289.33 252.77,305.86 L 252.50 327.50 L 249.46 327.80 C247.79,327.96 246.11,327.77 245.71,327.38 ZM 69.05 326.09 C68.34,324.76 68.05,317.13 68.23,304.28 L 68.50 284.50 L 72.27 284.19 L 76.04 283.88 L 75.77 305.69 L 75.50 327.50 L 72.82 327.81 C70.94,328.03 69.81,327.51 69.05,326.09 ZM 313.72 274.25 C312.39,272.77 296.11,240.09 280.86,208.25 C278.15,202.60 276.36,200.00 275.17,200.00 C274.86,200.00 274.31,200.10 273.59,200.29 C274.68,199.98 275.75,199.71 276.75,199.51 C278.54,199.14 280.00,198.44 280.00,197.96 C280.00,197.78 280.25,197.54 280.68,197.29 C280.24,197.73 280.01,198.26 280.01,198.86 C280.03,200.98 315.39,272.50 316.87,273.42 C317.49,273.80 318.00,274.54 318.00,275.06 C318.00,276.61 315.42,276.12 313.72,274.25 ZM 312.48 309.92 C310.57,303.92 304.81,292.79 304.02,293.60 C302.51,295.12 296.12,310.78 296.74,311.41 C297.07,311.73 300.89,312.00 305.23,312.00 C312.78,312.00 313.10,311.91 312.48,309.92 ZM 265.39 167.43 C263.97,167.62 261.57,168.10 259.57,168.59 C259.86,168.50 260.07,168.41 260.19,168.34 C260.57,168.13 257.25,160.65 252.82,151.73 C243.60,133.17 238.00,121.15 238.00,119.88 C238.00,116.12 241.73,122.37 252.10,143.50 C261.54,162.73 263.60,166.87 265.39,167.43 ZM 284.84 172.12 C271.68,176.71 258.45,180.89 246.85,184.02 C256.76,181.34 271.37,176.73 284.84,172.12 ZM 271.67 229.12 C271.62,227.91 270.51,225.07 268.95,222.28 C268.17,220.88 267.22,219.18 266.29,217.51 C270.60,224.82 271.95,227.45 271.67,229.12 ZM 328.43 150.65 C329.01,150.47 329.60,150.29 330.19,150.11 C337.34,147.90 341.82,146.69 343.65,146.51 C341.68,146.90 338.78,147.64 335.73,148.53 C333.42,149.21 330.95,149.93 328.43,150.65 ZM 265.27 234.66 C267.83,233.07 270.52,231.07 271.38,229.94 C271.25,230.17 271.10,230.38 270.91,230.61 C269.93,231.79 267.59,233.39 265.27,234.66 ZM 263.70 212.87 C263.52,212.53 263.34,212.22 263.18,211.93 C261.79,209.42 260.91,206.68 261.23,205.85 C261.38,205.46 262.09,204.92 263.17,204.32 C261.95,205.09 261.33,205.81 261.23,206.56 C261.12,207.30 262.14,209.82 263.70,212.87 ZM 226.89 220.18 C225.04,221.13 222.79,222.13 220.32,223.07 C219.81,223.26 219.37,223.39 218.93,223.36 C220.22,223.22 222.44,222.27 226.89,220.18 ZM 343.35 168.68 C359.69,160.57 372.28,153.66 371.19,153.23 C371.20,153.23 371.20,153.23 371.20,153.23 C372.37,153.62 359.49,160.68 343.35,168.68 ZM 232.00 216.25 C232.00,216.39 231.95,216.54 231.84,216.71 C231.95,216.54 232.00,216.38 232.00,216.25 Z" fill="rgba(23,78,122,1)"/>
<path d="M 257.66 234.75 C256.90,233.51 254.03,228.45 251.27,223.50 C248.52,218.55 244.18,210.91 241.64,206.53 C237.97,200.21 237.27,198.31 238.25,197.36 C238.94,196.70 251.55,192.51 266.27,188.04 C300.21,177.75 329.58,168.05 352.41,159.58 C362.26,155.93 370.71,153.07 371.18,153.23 C372.64,153.71 352.56,164.42 330.50,174.93 C318.95,180.42 309.02,185.33 308.42,185.84 C307.83,186.34 306.33,187.08 305.10,187.47 C303.86,187.86 299.54,189.69 295.50,191.53 C291.45,193.38 286.31,195.38 284.07,195.98 C281.83,196.58 280.00,197.47 280.00,197.96 C280.00,198.44 278.54,199.14 276.75,199.51 C270.52,200.79 261.80,204.35 261.23,205.85 C260.91,206.68 261.79,209.42 263.18,211.93 C264.58,214.44 267.17,219.10 268.95,222.28 C270.73,225.47 271.93,228.73 271.62,229.54 C270.98,231.23 262.24,237.00 260.33,237.00 C259.62,237.00 258.42,235.99 257.66,234.75 Z" fill="rgba(82,176,68,1)"/>
<path d="M 217.09 222.61 C216.51,221.91 212.38,214.62 207.92,206.42 C203.46,198.21 199.52,191.28 199.16,191.00 C197.34,189.62 193.65,180.95 194.53,180.15 C195.06,179.65 200.45,178.72 206.50,178.08 C217.15,176.94 250.37,171.05 258.49,168.87 C260.68,168.28 263.83,167.63 265.49,167.42 C267.15,167.22 269.40,166.66 270.50,166.18 C272.59,165.28 291.41,160.34 296.38,159.39 C299.49,158.80 320.74,152.93 335.73,148.53 C340.81,147.04 345.49,146.00 346.13,146.21 C347.51,146.67 327.82,155.74 309.00,163.30 C293.56,169.50 263.54,179.51 246.85,184.02 C240.61,185.71 234.15,187.52 232.50,188.04 C230.85,188.57 227.59,189.47 225.25,190.04 C222.51,190.71 221.00,191.63 221.00,192.64 C221.00,193.50 223.48,198.82 226.50,204.46 C229.52,210.10 232.00,215.40 232.00,216.25 C232.00,217.09 229.89,218.77 227.28,220.00 C219.38,223.71 218.25,224.00 217.09,222.61 Z" fill="rgba(236,120,35,1)"/>
</g>
</svg>